<svg xmlns="http://www.w3.org/2000/svg" viewBox="0 0 520 520">
  <defs>
    <linearGradient id="icon-gradient" x1="0%" y1="100%" x2="0%" y2="0%">
      <stop offset="0" stop-color="#afdbd9"/>
      <stop offset="1" stop-color="#f3e9dd"/>
    </linearGradient>
  </defs>
  <path fill="url(#icon-gradient)" d="M348.26,5.89h-176.26C80.31,5.89,5.97,80.44,5.97,172.4v176.76c0,91.96,74.34,166.51,166.03,166.51h176.26c91.7,0,166.03-74.55,166.03-166.51v-176.76c0-91.96-74.34-166.51-166.03-166.51Z"/>
  <path fill="#152b45" d="M306.57,149.72h-164.65l-7.54,42.97h172.56l7.18,29.45h-184.88l-4.13,23.56h152.98l7.18,29.45H120.02l-4.13,23.56h131.45l7.18,29.45H110.74l-7.54,42.97h203.37c60.9,0,110.42-49.66,110.42-110.74s-49.52-110.74-110.42-110.74v.07Z"/>
</svg>


